<?xml version="1.0" encoding="utf-8"?>
<svg xmlns="http://www.w3.org/2000/svg" width="520" height="520" viewBox="-10 -10 520 520">
  <defs>
    <style type="text/css"><![CDATA[
      line {
      stroke: #000000;
      stroke-linecap: square;
      stroke-width: 5;
      }]]>
    </style>
  </defs>
  <!-- ############# Maze lines ############### -->
  <line x1="0.0" y1="20.0" x2="20.0" y2="20.0"/>
  <line x1="0.0" y1="60.0" x2="20.0" y2="60.0"/>
  <line x1="20.0" y1="60.0" x2="20.0" y2="80.0"/>
  <line x1="20.0" y1="80.0" x2="20.0" y2="100.0"/>
  <line x1="20.0" y1="100.0" x2="20.0" y2="120.0"/>
  <line x1="20.0" y1="140.0" x2="20.0" y2="160.0"/>
  <line x1="20.0" y1="160.0" x2="20.0" y2="180.0"/>
  <line x1="20.0" y1="180.0" x2="20.0" y2="200.0"/>
  <line x1="0.0" y1="220.0" x2="20.0" y2="220.0"/>
  <line x1="20.0" y1="260.0" x2="20.0" y2="280.0"/>
  <line x1="0.0" y1="300.0" x2="20.0" y2="300.0"/>
  <line x1="20.0" y1="320.0" x2="20.0" y2="340.0"/>
  <line x1="20.0" y1="340.0" x2="20.0" y2="360.0"/>
  <line x1="20.0" y1="360.0" x2="20.0" y2="380.0"/>
  <line x1="20.0" y1="380.0" x2="20.0" y2="400.0"/>
  <line x1="0.0" y1="420.0" x2="20.0" y2="420.0"/>
  <line x1="0.0" y1="460.0" x2="20.0" y2="460.0"/>
  <line x1="0.0" y1="500.0" x2="20.0" y2="500.0"/>
  <line x1="40.0" y1="0.0" x2="40.0" y2="20.0"/>
  <line x1="20.0" y1="40.0" x2="40.0" y2="40.0"/>
  <line x1="40.0" y1="20.0" x2="40.0" y2="40.0"/>
  <line x1="40.0" y1="40.0" x2="40.0" y2="60.0"/>
  <line x1="40.0" y1="60.0" x2="40.0" y2="80.0"/>
  <line x1="40.0" y1="80.0" x2="40.0" y2="100.0"/>
  <line x1="40.0" y1="100.0" x2="40.0" y2="120.0"/>
  <line x1="20.0" y1="140.0" x2="40.0" y2="140.0"/>
  <line x1="40.0" y1="120.0" x2="40.0" y2="140.0"/>
  <line x1="40.0" y1="160.0" x2="40.0" y2="180.0"/>
  <line x1="40.0" y1="180.0" x2="40.0" y2="200.0"/>
  <line x1="20.0" y1="220.0" x2="40.0" y2="220.0"/>
  <line x1="40.0" y1="200.0" x2="40.0" y2="220.0"/>
  <line x1="20.0" y1="240.0" x2="40.0" y2="240.0"/>
  <line x1="40.0" y1="220.0" x2="40.0" y2="240.0"/>
  <line x1="40.0" y1="240.0" x2="40.0" y2="260.0"/>
  <line x1="20.0" y1="280.0" x2="40.0" y2="280.0"/>
  <line x1="20.0" y1="300.0" x2="40.0" y2="300.0"/>
  <line x1="20.0" y1="320.0" x2="40.0" y2="320.0"/>
  <line x1="40.0" y1="340.0" x2="40.0" y2="360.0"/>
  <line x1="40.0" y1="360.0" x2="40.0" y2="380.0"/>
  <line x1="20.0" y1="400.0" x2="40.0" y2="400.0"/>
  <line x1="40.0" y1="400.0" x2="40.0" y2="420.0"/>
  <line x1="20.0" y1="440.0" x2="40.0" y2="440.0"/>
  <line x1="40.0" y1="420.0" x2="40.0" y2="440.0"/>
  <line x1="40.0" y1="440.0" x2="40.0" y2="460.0"/>
  <line x1="20.0" y1="480.0" x2="40.0" y2="480.0"/>
  <line x1="40.0" y1="460.0" x2="40.0" y2="480.0"/>
  <line x1="20.0" y1="500.0" x2="40.0" y2="500.0"/>
  <line x1="60.0" y1="0.0" x2="60.0" y2="20.0"/>
  <line x1="60.0" y1="20.0" x2="60.0" y2="40.0"/>
  <line x1="40.0" y1="80.0" x2="60.0" y2="80.0"/>
  <line x1="60.0" y1="60.0" x2="60.0" y2="80.0"/>
  <line x1="60.0" y1="100.0" x2="60.0" y2="120.0"/>
  <line x1="60.0" y1="120.0" x2="60.0" y2="140.0"/>
  <line x1="40.0" y1="160.0" x2="60.0" y2="160.0"/>
  <line x1="60.0" y1="140.0" x2="60.0" y2="160.0"/>
  <line x1="40.0" y1="180.0" x2="60.0" y2="180.0"/>
  <line x1="40.0" y1="240.0" x2="60.0" y2="240.0"/>
  <line x1="40.0" y1="280.0" x2="60.0" y2="280.0"/>
  <line x1="60.0" y1="260.0" x2="60.0" y2="280.0"/>
  <line x1="40.0" y1="300.0" x2="60.0" y2="300.0"/>
  <line x1="40.0" y1="340.0" x2="60.0" y2="340.0"/>
  <line x1="60.0" y1="320.0" x2="60.0" y2="340.0"/>
  <line x1="40.0" y1="360.0" x2="60.0" y2="360.0"/>
  <line x1="40.0" y1="400.0" x2="60.0" y2="400.0"/>
  <line x1="60.0" y1="380.0" x2="60.0" y2="400.0"/>
  <line x1="60.0" y1="400.0" x2="60.0" y2="420.0"/>
  <line x1="60.0" y1="420.0" x2="60.0" y2="440.0"/>
  <line x1="40.0" y1="480.0" x2="60.0" y2="480.0"/>
  <line x1="40.0" y1="500.0" x2="60.0" y2="500.0"/>
  <line x1="60.0" y1="40.0" x2="80.0" y2="40.0"/>
  <line x1="60.0" y1="60.0" x2="80.0" y2="60.0"/>
  <line x1="60.0" y1="100.0" x2="80.0" y2="100.0"/>
  <line x1="80.0" y1="80.0" x2="80.0" y2="100.0"/>
  <line x1="80.0" y1="120.0" x2="80.0" y2="140.0"/>
  <line x1="80.0" y1="140.0" x2="80.0" y2="160.0"/>
  <line x1="80.0" y1="160.0" x2="80.0" y2="180.0"/>
  <line x1="60.0" y1="200.0" x2="80.0" y2="200.0"/>
  <line x1="80.0" y1="180.0" x2="80.0" y2="200.0"/>
  <line x1="60.0" y1="220.0" x2="80.0" y2="220.0"/>
  <line x1="80.0" y1="220.0" x2="80.0" y2="240.0"/>
  <line x1="60.0" y1="260.0" x2="80.0" y2="260.0"/>
  <line x1="80.0" y1="240.0" x2="80.0" y2="260.0"/>
  <line x1="60.0" y1="300.0" x2="80.0" y2="300.0"/>
  <line x1="80.0" y1="280.0" x2="80.0" y2="300.0"/>
  <line x1="80.0" y1="300.0" x2="80.0" y2="320.0"/>
  <line x1="80.0" y1="320.0" x2="80.0" y2="340.0"/>
  <line x1="60.0" y1="360.0" x2="80.0" y2="360.0"/>
  <line x1="80.0" y1="340.0" x2="80.0" y2="360.0"/>
  <line x1="60.0" y1="380.0" x2="80.0" y2="380.0"/>
  <line x1="80.0" y1="380.0" x2="80.0" y2="400.0"/>
  <line x1="60.0" y1="460.0" x2="80.0" y2="460.0"/>
  <line x1="80.0" y1="440.0" x2="80.0" y2="460.0"/>
  <line x1="60.0" y1="480.0" x2="80.0" y2="480.0"/>
  <line x1="80.0" y1="460.0" x2="80.0" y2="480.0"/>
  <line x1="60.0" y1="500.0" x2="80.0" y2="500.0"/>
  <line x1="80.0" y1="20.0" x2="100.0" y2="20.0"/>
  <line x1="100.0" y1="20.0" x2="100.0" y2="40.0"/>
  <line x1="80.0" y1="60.0" x2="100.0" y2="60.0"/>
  <line x1="100.0" y1="40.0" x2="100.0" y2="60.0"/>
  <line x1="80.0" y1="80.0" x2="100.0" y2="80.0"/>
  <line x1="80.0" y1="100.0" x2="100.0" y2="100.0"/>
  <line x1="100.0" y1="100.0" x2="100.0" y2="120.0"/>
  <line x1="80.0" y1="140.0" x2="100.0" y2="140.0"/>
  <line x1="100.0" y1="160.0" x2="100.0" y2="180.0"/>
  <line x1="80.0" y1="200.0" x2="100.0" y2="200.0"/>
  <line x1="100.0" y1="220.0" x2="100.0" y2="240.0"/>
  <line x1="80.0" y1="260.0" x2="100.0" y2="260.0"/>
  <line x1="100.0" y1="260.0" x2="100.0" y2="280.0"/>
  <line x1="100.0" y1="280.0" x2="100.0" y2="300.0"/>
  <line x1="100.0" y1="300.0" x2="100.0" y2="320.0"/>
  <line x1="80.0" y1="340.0" x2="100.0" y2="340.0"/>
  <line x1="80.0" y1="380.0" x2="100.0" y2="380.0"/>
  <line x1="100.0" y1="360.0" x2="100.0" y2="380.0"/>
  <line x1="80.0" y1="420.0" x2="100.0" y2="420.0"/>
  <line x1="100.0" y1="400.0" x2="100.0" y2="420.0"/>
  <line x1="80.0" y1="440.0" x2="100.0" y2="440.0"/>
  <line x1="100.0" y1="420.0" x2="100.0" y2="440.0"/>
  <line x1="80.0" y1="480.0" x2="100.0" y2="480.0"/>
  <line x1="80.0" y1="500.0" x2="100.0" y2="500.0"/>
  <line x1="100.0" y1="40.0" x2="120.0" y2="40.0"/>
  <line x1="100.0" y1="80.0" x2="120.0" y2="80.0"/>
  <line x1="120.0" y1="60.0" x2="120.0" y2="80.0"/>
  <line x1="120.0" y1="100.0" x2="120.0" y2="120.0"/>
  <line x1="100.0" y1="140.0" x2="120.0" y2="140.0"/>
  <line x1="120.0" y1="120.0" x2="120.0" y2="140.0"/>
  <line x1="100.0" y1="160.0" x2="120.0" y2="160.0"/>
  <line x1="100.0" y1="200.0" x2="120.0" y2="200.0"/>
  <line x1="120.0" y1="180.0" x2="120.0" y2="200.0"/>
  <line x1="120.0" y1="200.0" x2="120.0" y2="220.0"/>
  <line x1="100.0" y1="240.0" x2="120.0" y2="240.0"/>
  <line x1="120.0" y1="220.0" x2="120.0" y2="240.0"/>
  <line x1="120.0" y1="240.0" x2="120.0" y2="260.0"/>
  <line x1="100.0" y1="280.0" x2="120.0" y2="280.0"/>
  <line x1="100.0" y1="320.0" x2="120.0" y2="320.0"/>
  <line x1="120.0" y1="320.0" x2="120.0" y2="340.0"/>
  <line x1="100.0" y1="360.0" x2="120.0" y2="360.0"/>
  <line x1="120.0" y1="340.0" x2="120.0" y2="360.0"/>
  <line x1="100.0" y1="400.0" x2="120.0" y2="400.0"/>
  <line x1="120.0" y1="380.0" x2="120.0" y2="400.0"/>
  <line x1="120.0" y1="420.0" x2="120.0" y2="440.0"/>
  <line x1="100.0" y1="460.0" x2="120.0" y2="460.0"/>
  <line x1="120.0" y1="440.0" x2="120.0" y2="460.0"/>
  <line x1="120.0" y1="460.0" x2="120.0" y2="480.0"/>
  <line x1="100.0" y1="500.0" x2="120.0" y2="500.0"/>
  <line x1="120.0" y1="480.0" x2="120.0" y2="500.0"/>
  <line x1="120.0" y1="20.0" x2="140.0" y2="20.0"/>
  <line x1="140.0" y1="20.0" x2="140.0" y2="40.0"/>
  <line x1="120.0" y1="60.0" x2="140.0" y2="60.0"/>
  <line x1="140.0" y1="40.0" x2="140.0" y2="60.0"/>
  <line x1="140.0" y1="60.0" x2="140.0" y2="80.0"/>
  <line x1="140.0" y1="80.0" x2="140.0" y2="100.0"/>
  <line x1="120.0" y1="120.0" x2="140.0" y2="120.0"/>
  <line x1="140.0" y1="100.0" x2="140.0" y2="120.0"/>
  <line x1="120.0" y1="160.0" x2="140.0" y2="160.0"/>
  <line x1="140.0" y1="140.0" x2="140.0" y2="160.0"/>
  <line x1="140.0" y1="160.0" x2="140.0" y2="180.0"/>
  <line x1="140.0" y1="180.0" x2="140.0" y2="200.0"/>
  <line x1="140.0" y1="200.0" x2="140.0" y2="220.0"/>
  <line x1="140.0" y1="220.0" x2="140.0" y2="240.0"/>
  <line x1="120.0" y1="260.0" x2="140.0" y2="260.0"/>
  <line x1="120.0" y1="300.0" x2="140.0" y2="300.0"/>
  <line x1="140.0" y1="280.0" x2="140.0" y2="300.0"/>
  <line x1="120.0" y1="320.0" x2="140.0" y2="320.0"/>
  <line x1="140.0" y1="320.0" x2="140.0" y2="340.0"/>
  <line x1="140.0" y1="360.0" x2="140.0" y2="380.0"/>
  <line x1="140.0" y1="380.0" x2="140.0" y2="400.0"/>
  <line x1="140.0" y1="400.0" x2="140.0" y2="420.0"/>
  <line x1="140.0" y1="420.0" x2="140.0" y2="440.0"/>
  <line x1="140.0" y1="440.0" x2="140.0" y2="460.0"/>
  <line x1="140.0" y1="460.0" x2="140.0" y2="480.0"/>
  <line x1="120.0" y1="500.0" x2="140.0" y2="500.0"/>
  <line x1="140.0" y1="20.0" x2="160.0" y2="20.0"/>
  <line x1="160.0" y1="20.0" x2="160.0" y2="40.0"/>
  <line x1="140.0" y1="80.0" x2="160.0" y2="80.0"/>
  <line x1="160.0" y1="100.0" x2="160.0" y2="120.0"/>
  <line x1="140.0" y1="140.0" x2="160.0" y2="140.0"/>
  <line x1="160.0" y1="120.0" x2="160.0" y2="140.0"/>
  <line x1="160.0" y1="140.0" x2="160.0" y2="160.0"/>
  <line x1="140.0" y1="200.0" x2="160.0" y2="200.0"/>
  <line x1="160.0" y1="180.0" x2="160.0" y2="200.0"/>
  <line x1="160.0" y1="220.0" x2="160.0" y2="240.0"/>
  <line x1="140.0" y1="260.0" x2="160.0" y2="260.0"/>
  <line x1="160.0" y1="240.0" x2="160.0" y2="260.0"/>
  <line x1="140.0" y1="280.0" x2="160.0" y2="280.0"/>
  <line x1="140.0" y1="300.0" x2="160.0" y2="300.0"/>
  <line x1="160.0" y1="300.0" x2="160.0" y2="320.0"/>
  <line x1="140.0" y1="340.0" x2="160.0" y2="340.0"/>
  <line x1="160.0" y1="340.0" x2="160.0" y2="360.0"/>
  <line x1="140.0" y1="380.0" x2="160.0" y2="380.0"/>
  <line x1="160.0" y1="360.0" x2="160.0" y2="380.0"/>
  <line x1="160.0" y1="400.0" x2="160.0" y2="420.0"/>
  <line x1="160.0" y1="420.0" x2="160.0" y2="440.0"/>
  <line x1="140.0" y1="460.0" x2="160.0" y2="460.0"/>
  <line x1="140.0" y1="480.0" x2="160.0" y2="480.0"/>
  <line x1="140.0" y1="500.0" x2="160.0" y2="500.0"/>
  <line x1="180.0" y1="0.0" x2="180.0" y2="20.0"/>
  <line x1="180.0" y1="20.0" x2="180.0" y2="40.0"/>
  <line x1="160.0" y1="60.0" x2="180.0" y2="60.0"/>
  <line x1="180.0" y1="40.0" x2="180.0" y2="60.0"/>
  <line x1="180.0" y1="60.0" x2="180.0" y2="80.0"/>
  <line x1="160.0" y1="100.0" x2="180.0" y2="100.0"/>
  <line x1="180.0" y1="80.0" x2="180.0" y2="100.0"/>
  <line x1="180.0" y1="120.0" x2="180.0" y2="140.0"/>
  <line x1="180.0" y1="140.0" x2="180.0" y2="160.0"/>
  <line x1="160.0" y1="180.0" x2="180.0" y2="180.0"/>
  <line x1="160.0" y1="220.0" x2="180.0" y2="220.0"/>
  <line x1="180.0" y1="200.0" x2="180.0" y2="220.0"/>
  <line x1="180.0" y1="220.0" x2="180.0" y2="240.0"/>
  <line x1="160.0" y1="260.0" x2="180.0" y2="260.0"/>
  <line x1="180.0" y1="260.0" x2="180.0" y2="280.0"/>
  <line x1="160.0" y1="300.0" x2="180.0" y2="300.0"/>
  <line x1="160.0" y1="340.0" x2="180.0" y2="340.0"/>
  <line x1="180.0" y1="320.0" x2="180.0" y2="340.0"/>
  <line x1="180.0" y1="360.0" x2="180.0" y2="380.0"/>
  <line x1="160.0" y1="400.0" x2="180.0" y2="400.0"/>
  <line x1="180.0" y1="380.0" x2="180.0" y2="400.0"/>
  <line x1="160.0" y1="420.0" x2="180.0" y2="420.0"/>
  <line x1="160.0" y1="460.0" x2="180.0" y2="460.0"/>
  <line x1="180.0" y1="440.0" x2="180.0" y2="460.0"/>
  <line x1="160.0" y1="480.0" x2="180.0" y2="480.0"/>
  <line x1="160.0" y1="500.0" x2="180.0" y2="500.0"/>
  <line x1="200.0" y1="40.0" x2="200.0" y2="60.0"/>
  <line x1="180.0" y1="80.0" x2="200.0" y2="80.0"/>
  <line x1="200.0" y1="80.0" x2="200.0" y2="100.0"/>
  <line x1="200.0" y1="100.0" x2="200.0" y2="120.0"/>
  <line x1="200.0" y1="120.0" x2="200.0" y2="140.0"/>
  <line x1="180.0" y1="160.0" x2="200.0" y2="160.0"/>
  <line x1="180.0" y1="180.0" x2="200.0" y2="180.0"/>
  <line x1="180.0" y1="200.0" x2="200.0" y2="200.0"/>
  <line x1="180.0" y1="240.0" x2="200.0" y2="240.0"/>
  <line x1="200.0" y1="240.0" x2="200.0" y2="260.0"/>
  <line x1="180.0" y1="300.0" x2="200.0" y2="300.0"/>
  <line x1="200.0" y1="280.0" x2="200.0" y2="300.0"/>
  <line x1="200.0" y1="300.0" x2="200.0" y2="320.0"/>
  <line x1="200.0" y1="320.0" x2="200.0" y2="340.0"/>
  <line x1="200.0" y1="340.0" x2="200.0" y2="360.0"/>
  <line x1="200.0" y1="360.0" x2="200.0" y2="380.0"/>
  <line x1="180.0" y1="400.0" x2="200.0" y2="400.0"/>
  <line x1="180.0" y1="420.0" x2="200.0" y2="420.0"/>
  <line x1="200.0" y1="420.0" x2="200.0" y2="440.0"/>
  <line x1="180.0" y1="460.0" x2="200.0" y2="460.0"/>
  <line x1="180.0" y1="480.0" x2="200.0" y2="480.0"/>
  <line x1="180.0" y1="500.0" x2="200.0" y2="500.0"/>
  <line x1="200.0" y1="20.0" x2="220.0" y2="20.0"/>
  <line x1="200.0" y1="40.0" x2="220.0" y2="40.0"/>
  <line x1="220.0" y1="40.0" x2="220.0" y2="60.0"/>
  <line x1="220.0" y1="60.0" x2="220.0" y2="80.0"/>
  <line x1="200.0" y1="100.0" x2="220.0" y2="100.0"/>
  <line x1="220.0" y1="120.0" x2="220.0" y2="140.0"/>
  <line x1="200.0" y1="160.0" x2="220.0" y2="160.0"/>
  <line x1="200.0" y1="180.0" x2="220.0" y2="180.0"/>
  <line x1="220.0" y1="160.0" x2="220.0" y2="180.0"/>
  <line x1="200.0" y1="200.0" x2="220.0" y2="200.0"/>
  <line x1="200.0" y1="220.0" x2="220.0" y2="220.0"/>
  <line x1="220.0" y1="220.0" x2="220.0" y2="240.0"/>
  <line x1="200.0" y1="260.0" x2="220.0" y2="260.0"/>
  <line x1="200.0" y1="280.0" x2="220.0" y2="280.0"/>
  <line x1="220.0" y1="260.0" x2="220.0" y2="280.0"/>
  <line x1="220.0" y1="300.0" x2="220.0" y2="320.0"/>
  <line x1="220.0" y1="320.0" x2="220.0" y2="340.0"/>
  <line x1="200.0" y1="360.0" x2="220.0" y2="360.0"/>
  <line x1="200.0" y1="400.0" x2="220.0" y2="400.0"/>
  <line x1="220.0" y1="380.0" x2="220.0" y2="400.0"/>
  <line x1="200.0" y1="440.0" x2="220.0" y2="440.0"/>
  <line x1="200.0" y1="460.0" x2="220.0" y2="460.0"/>
  <line x1="200.0" y1="480.0" x2="220.0" y2="480.0"/>
  <line x1="200.0" y1="500.0" x2="220.0" y2="500.0"/>
  <line x1="220.0" y1="20.0" x2="240.0" y2="20.0"/>
  <line x1="240.0" y1="20.0" x2="240.0" y2="40.0"/>
  <line x1="240.0" y1="40.0" x2="240.0" y2="60.0"/>
  <line x1="220.0" y1="80.0" x2="240.0" y2="80.0"/>
  <line x1="220.0" y1="100.0" x2="240.0" y2="100.0"/>
  <line x1="240.0" y1="100.0" x2="240.0" y2="120.0"/>
  <line x1="220.0" y1="140.0" x2="240.0" y2="140.0"/>
  <line x1="220.0" y1="160.0" x2="240.0" y2="160.0"/>
  <line x1="220.0" y1="200.0" x2="240.0" y2="200.0"/>
  <line x1="240.0" y1="180.0" x2="240.0" y2="200.0"/>
  <line x1="220.0" y1="220.0" x2="240.0" y2="220.0"/>
  <line x1="220.0" y1="240.0" x2="240.0" y2="240.0"/>
  <line x1="240.0" y1="240.0" x2="240.0" y2="260.0"/>
  <line x1="240.0" y1="260.0" x2="240.0" y2="280.0"/>
  <line x1="220.0" y1="300.0" x2="240.0" y2="300.0"/>
  <line x1="240.0" y1="280.0" x2="240.0" y2="300.0"/>
  <line x1="240.0" y1="300.0" x2="240.0" y2="320.0"/>
  <line x1="220.0" y1="340.0" x2="240.0" y2="340.0"/>
  <line x1="220.0" y1="360.0" x2="240.0" y2="360.0"/>
  <line x1="240.0" y1="360.0" x2="240.0" y2="380.0"/>
  <line x1="220.0" y1="420.0" x2="240.0" y2="420.0"/>
  <line x1="240.0" y1="400.0" x2="240.0" y2="420.0"/>
  <line x1="220.0" y1="440.0" x2="240.0" y2="440.0"/>
  <line x1="240.0" y1="420.0" x2="240.0" y2="440.0"/>
  <line x1="220.0" y1="460.0" x2="240.0" y2="460.0"/>
  <line x1="220.0" y1="480.0" x2="240.0" y2="480.0"/>
  <line x1="220.0" y1="500.0" x2="240.0" y2="500.0"/>
  <line x1="240.0" y1="20.0" x2="260.0" y2="20.0"/>
  <line x1="240.0" y1="60.0" x2="260.0" y2="60.0"/>
  <line x1="260.0" y1="40.0" x2="260.0" y2="60.0"/>
  <line x1="240.0" y1="80.0" x2="260.0" y2="80.0"/>
  <line x1="240.0" y1="100.0" x2="260.0" y2="100.0"/>
  <line x1="240.0" y1="140.0" x2="260.0" y2="140.0"/>
  <line x1="260.0" y1="120.0" x2="260.0" y2="140.0"/>
  <line x1="240.0" y1="160.0" x2="260.0" y2="160.0"/>
  <line x1="260.0" y1="140.0" x2="260.0" y2="160.0"/>
  <line x1="240.0" y1="180.0" x2="260.0" y2="180.0"/>
  <line x1="240.0" y1="220.0" x2="260.0" y2="220.0"/>
  <line x1="260.0" y1="200.0" x2="260.0" y2="220.0"/>
  <line x1="260.0" y1="220.0" x2="260.0" y2="240.0"/>
  <line x1="260.0" y1="240.0" x2="260.0" y2="260.0"/>
  <line x1="260.0" y1="280.0" x2="260.0" y2="300.0"/>
  <line x1="260.0" y1="300.0" x2="260.0" y2="320.0"/>
  <line x1="240.0" y1="340.0" x2="260.0" y2="340.0"/>
  <line x1="260.0" y1="320.0" x2="260.0" y2="340.0"/>
  <line x1="260.0" y1="340.0" x2="260.0" y2="360.0"/>
  <line x1="240.0" y1="380.0" x2="260.0" y2="380.0"/>
  <line x1="240.0" y1="400.0" x2="260.0" y2="400.0"/>
  <line x1="260.0" y1="380.0" x2="260.0" y2="400.0"/>
  <line x1="260.0" y1="420.0" x2="260.0" y2="440.0"/>
  <line x1="240.0" y1="460.0" x2="260.0" y2="460.0"/>
  <line x1="260.0" y1="440.0" x2="260.0" y2="460.0"/>
  <line x1="240.0" y1="480.0" x2="260.0" y2="480.0"/>
  <line x1="240.0" y1="500.0" x2="260.0" y2="500.0"/>
  <line x1="260.0" y1="20.0" x2="280.0" y2="20.0"/>
  <line x1="260.0" y1="40.0" x2="280.0" y2="40.0"/>
  <line x1="260.0" y1="80.0" x2="280.0" y2="80.0"/>
  <line x1="280.0" y1="60.0" x2="280.0" y2="80.0"/>
  <line x1="280.0" y1="80.0" x2="280.0" y2="100.0"/>
  <line x1="260.0" y1="120.0" x2="280.0" y2="120.0"/>
  <line x1="280.0" y1="140.0" x2="280.0" y2="160.0"/>
  <line x1="260.0" y1="180.0" x2="280.0" y2="180.0"/>
  <line x1="280.0" y1="160.0" x2="280.0" y2="180.0"/>
  <line x1="280.0" y1="180.0" x2="280.0" y2="200.0"/>
  <line x1="280.0" y1="200.0" x2="280.0" y2="220.0"/>
  <line x1="280.0" y1="220.0" x2="280.0" y2="240.0"/>
  <line x1="260.0" y1="260.0" x2="280.0" y2="260.0"/>
  <line x1="280.0" y1="260.0" x2="280.0" y2="280.0"/>
  <line x1="260.0" y1="300.0" x2="280.0" y2="300.0"/>
  <line x1="280.0" y1="320.0" x2="280.0" y2="340.0"/>
  <line x1="260.0" y1="360.0" x2="280.0" y2="360.0"/>
  <line x1="280.0" y1="360.0" x2="280.0" y2="380.0"/>
  <line x1="260.0" y1="400.0" x2="280.0" y2="400.0"/>
  <line x1="280.0" y1="400.0" x2="280.0" y2="420.0"/>
  <line x1="260.0" y1="440.0" x2="280.0" y2="440.0"/>
  <line x1="260.0" y1="480.0" x2="280.0" y2="480.0"/>
  <line x1="260.0" y1="500.0" x2="280.0" y2="500.0"/>
  <line x1="280.0" y1="20.0" x2="300.0" y2="20.0"/>
  <line x1="280.0" y1="40.0" x2="300.0" y2="40.0"/>
  <line x1="280.0" y1="60.0" x2="300.0" y2="60.0"/>
  <line x1="300.0" y1="60.0" x2="300.0" y2="80.0"/>
  <line x1="300.0" y1="80.0" x2="300.0" y2="100.0"/>
  <line x1="280.0" y1="120.0" x2="300.0" y2="120.0"/>
  <line x1="300.0" y1="100.0" x2="300.0" y2="120.0"/>
  <line x1="300.0" y1="120.0" x2="300.0" y2="140.0"/>
  <line x1="300.0" y1="140.0" x2="300.0" y2="160.0"/>
  <line x1="300.0" y1="160.0" x2="300.0" y2="180.0"/>
  <line x1="280.0" y1="200.0" x2="300.0" y2="200.0"/>
  <line x1="300.0" y1="220.0" x2="300.0" y2="240.0"/>
  <line x1="280.0" y1="260.0" x2="300.0" y2="260.0"/>
  <line x1="300.0" y1="240.0" x2="300.0" y2="260.0"/>
  <line x1="280.0" y1="300.0" x2="300.0" y2="300.0"/>
  <line x1="300.0" y1="280.0" x2="300.0" y2="300.0"/>
  <line x1="280.0" y1="320.0" x2="300.0" y2="320.0"/>
  <line x1="280.0" y1="340.0" x2="300.0" y2="340.0"/>
  <line x1="280.0" y1="380.0" x2="300.0" y2="380.0"/>
  <line x1="300.0" y1="360.0" x2="300.0" y2="380.0"/>
  <line x1="300.0" y1="380.0" x2="300.0" y2="400.0"/>
  <line x1="280.0" y1="420.0" x2="300.0" y2="420.0"/>
  <line x1="280.0" y1="440.0" x2="300.0" y2="440.0"/>
  <line x1="280.0" y1="460.0" x2="300.0" y2="460.0"/>
  <line x1="300.0" y1="440.0" x2="300.0" y2="460.0"/>
  <line x1="300.0" y1="460.0" x2="300.0" y2="480.0"/>
  <line x1="280.0" y1="500.0" x2="300.0" y2="500.0"/>
  <line x1="300.0" y1="480.0" x2="300.0" y2="500.0"/>
  <line x1="300.0" y1="20.0" x2="320.0" y2="20.0"/>
  <line x1="300.0" y1="40.0" x2="320.0" y2="40.0"/>
  <line x1="320.0" y1="40.0" x2="320.0" y2="60.0"/>
  <line x1="320.0" y1="60.0" x2="320.0" y2="80.0"/>
  <line x1="300.0" y1="100.0" x2="320.0" y2="100.0"/>
  <line x1="320.0" y1="120.0" x2="320.0" y2="140.0"/>
  <line x1="320.0" y1="140.0" x2="320.0" y2="160.0"/>
  <line x1="300.0" y1="180.0" x2="320.0" y2="180.0"/>
  <line x1="320.0" y1="180.0" x2="320.0" y2="200.0"/>
  <line x1="300.0" y1="220.0" x2="320.0" y2="220.0"/>
  <line x1="320.0" y1="200.0" x2="320.0" y2="220.0"/>
  <line x1="300.0" y1="260.0" x2="320.0" y2="260.0"/>
  <line x1="320.0" y1="260.0" x2="320.0" y2="280.0"/>
  <line x1="300.0" y1="300.0" x2="320.0" y2="300.0"/>
  <line x1="300.0" y1="320.0" x2="320.0" y2="320.0"/>
  <line x1="300.0" y1="340.0" x2="320.0" y2="340.0"/>
  <line x1="320.0" y1="340.0" x2="320.0" y2="360.0"/>
  <line x1="320.0" y1="360.0" x2="320.0" y2="380.0"/>
  <line x1="320.0" y1="380.0" x2="320.0" y2="400.0"/>
  <line x1="300.0" y1="420.0" x2="320.0" y2="420.0"/>
  <line x1="320.0" y1="400.0" x2="320.0" y2="420.0"/>
  <line x1="320.0" y1="420.0" x2="320.0" y2="440.0"/>
  <line x1="320.0" y1="440.0" x2="320.0" y2="460.0"/>
  <line x1="300.0" y1="500.0" x2="320.0" y2="500.0"/>
  <line x1="320.0" y1="20.0" x2="340.0" y2="20.0"/>
  <line x1="340.0" y1="40.0" x2="340.0" y2="60.0"/>
  <line x1="320.0" y1="80.0" x2="340.0" y2="80.0"/>
  <line x1="320.0" y1="100.0" x2="340.0" y2="100.0"/>
  <line x1="320.0" y1="120.0" x2="340.0" y2="120.0"/>
  <line x1="320.0" y1="160.0" x2="340.0" y2="160.0"/>
  <line x1="340.0" y1="160.0" x2="340.0" y2="180.0"/>
  <line x1="340.0" y1="180.0" x2="340.0" y2="200.0"/>
  <line x1="320.0" y1="240.0" x2="340.0" y2="240.0"/>
  <line x1="340.0" y1="220.0" x2="340.0" y2="240.0"/>
  <line x1="340.0" y1="240.0" x2="340.0" y2="260.0"/>
  <line x1="340.0" y1="260.0" x2="340.0" y2="280.0"/>
  <line x1="320.0" y1="300.0" x2="340.0" y2="300.0"/>
  <line x1="340.0" y1="280.0" x2="340.0" y2="300.0"/>
  <line x1="340.0" y1="300.0" x2="340.0" y2="320.0"/>
  <line x1="340.0" y1="320.0" x2="340.0" y2="340.0"/>
  <line x1="320.0" y1="360.0" x2="340.0" y2="360.0"/>
  <line x1="340.0" y1="380.0" x2="340.0" y2="400.0"/>
  <line x1="340.0" y1="400.0" x2="340.0" y2="420.0"/>
  <line x1="340.0" y1="420.0" x2="340.0" y2="440.0"/>
  <line x1="320.0" y1="460.0" x2="340.0" y2="460.0"/>
  <line x1="320.0" y1="480.0" x2="340.0" y2="480.0"/>
  <line x1="340.0" y1="460.0" x2="340.0" y2="480.0"/>
  <line x1="320.0" y1="500.0" x2="340.0" y2="500.0"/>
  <line x1="360.0" y1="0.0" x2="360.0" y2="20.0"/>
  <line x1="340.0" y1="40.0" x2="360.0" y2="40.0"/>
  <line x1="360.0" y1="20.0" x2="360.0" y2="40.0"/>
  <line x1="340.0" y1="60.0" x2="360.0" y2="60.0"/>
  <line x1="340.0" y1="80.0" x2="360.0" y2="80.0"/>
  <line x1="340.0" y1="100.0" x2="360.0" y2="100.0"/>
  <line x1="340.0" y1="120.0" x2="360.0" y2="120.0"/>
  <line x1="340.0" y1="140.0" x2="360.0" y2="140.0"/>
  <line x1="360.0" y1="140.0" x2="360.0" y2="160.0"/>
  <line x1="340.0" y1="180.0" x2="360.0" y2="180.0"/>
  <line x1="340.0" y1="220.0" x2="360.0" y2="220.0"/>
  <line x1="360.0" y1="200.0" x2="360.0" y2="220.0"/>
  <line x1="340.0" y1="260.0" x2="360.0" y2="260.0"/>
  <line x1="360.0" y1="300.0" x2="360.0" y2="320.0"/>
  <line x1="340.0" y1="340.0" x2="360.0" y2="340.0"/>
  <line x1="360.0" y1="320.0" x2="360.0" y2="340.0"/>
  <line x1="360.0" y1="340.0" x2="360.0" y2="360.0"/>
  <line x1="340.0" y1="380.0" x2="360.0" y2="380.0"/>
  <line x1="360.0" y1="360.0" x2="360.0" y2="380.0"/>
  <line x1="340.0" y1="400.0" x2="360.0" y2="400.0"/>
  <line x1="340.0" y1="440.0" x2="360.0" y2="440.0"/>
  <line x1="360.0" y1="440.0" x2="360.0" y2="460.0"/>
  <line x1="340.0" y1="480.0" x2="360.0" y2="480.0"/>
  <line x1="340.0" y1="500.0" x2="360.0" y2="500.0"/>
  <line x1="360.0" y1="60.0" x2="380.0" y2="60.0"/>
  <line x1="380.0" y1="40.0" x2="380.0" y2="60.0"/>
  <line x1="360.0" y1="80.0" x2="380.0" y2="80.0"/>
  <line x1="380.0" y1="80.0" x2="380.0" y2="100.0"/>
  <line x1="360.0" y1="120.0" x2="380.0" y2="120.0"/>
  <line x1="380.0" y1="100.0" x2="380.0" y2="120.0"/>
  <line x1="360.0" y1="140.0" x2="380.0" y2="140.0"/>
  <line x1="360.0" y1="160.0" x2="380.0" y2="160.0"/>
  <line x1="360.0" y1="180.0" x2="380.0" y2="180.0"/>
  <line x1="380.0" y1="180.0" x2="380.0" y2="200.0"/>
  <line x1="360.0" y1="220.0" x2="380.0" y2="220.0"/>
  <line x1="360.0" y1="240.0" x2="380.0" y2="240.0"/>
  <line x1="380.0" y1="240.0" x2="380.0" y2="260.0"/>
  <line x1="360.0" y1="280.0" x2="380.0" y2="280.0"/>
  <line x1="380.0" y1="260.0" x2="380.0" y2="280.0"/>
  <line x1="380.0" y1="280.0" x2="380.0" y2="300.0"/>
  <line x1="380.0" y1="300.0" x2="380.0" y2="320.0"/>
  <line x1="380.0" y1="320.0" x2="380.0" y2="340.0"/>
  <line x1="380.0" y1="340.0" x2="380.0" y2="360.0"/>
  <line x1="360.0" y1="400.0" x2="380.0" y2="400.0"/>
  <line x1="360.0" y1="420.0" x2="380.0" y2="420.0"/>
  <line x1="380.0" y1="420.0" x2="380.0" y2="440.0"/>
  <line x1="360.0" y1="460.0" x2="380.0" y2="460.0"/>
  <line x1="360.0" y1="480.0" x2="380.0" y2="480.0"/>
  <line x1="360.0" y1="500.0" x2="380.0" y2="500.0"/>
  <line x1="380.0" y1="20.0" x2="400.0" y2="20.0"/>
  <line x1="380.0" y1="40.0" x2="400.0" y2="40.0"/>
  <line x1="380.0" y1="80.0" x2="400.0" y2="80.0"/>
  <line x1="400.0" y1="60.0" x2="400.0" y2="80.0"/>
  <line x1="380.0" y1="120.0" x2="400.0" y2="120.0"/>
  <line x1="400.0" y1="120.0" x2="400.0" y2="140.0"/>
  <line x1="380.0" y1="160.0" x2="400.0" y2="160.0"/>
  <line x1="400.0" y1="140.0" x2="400.0" y2="160.0"/>
  <line x1="400.0" y1="160.0" x2="400.0" y2="180.0"/>
  <line x1="380.0" y1="200.0" x2="400.0" y2="200.0"/>
  <line x1="400.0" y1="200.0" x2="400.0" y2="220.0"/>
  <line x1="380.0" y1="240.0" x2="400.0" y2="240.0"/>
  <line x1="400.0" y1="220.0" x2="400.0" y2="240.0"/>
  <line x1="400.0" y1="240.0" x2="400.0" y2="260.0"/>
  <line x1="400.0" y1="260.0" x2="400.0" y2="280.0"/>
  <line x1="400.0" y1="300.0" x2="400.0" y2="320.0"/>
  <line x1="400.0" y1="320.0" x2="400.0" y2="340.0"/>
  <line x1="380.0" y1="360.0" x2="400.0" y2="360.0"/>
  <line x1="400.0" y1="340.0" x2="400.0" y2="360.0"/>
  <line x1="380.0" y1="380.0" x2="400.0" y2="380.0"/>
  <line x1="380.0" y1="400.0" x2="400.0" y2="400.0"/>
  <line x1="400.0" y1="380.0" x2="400.0" y2="400.0"/>
  <line x1="400.0" y1="400.0" x2="400.0" y2="420.0"/>
  <line x1="380.0" y1="440.0" x2="400.0" y2="440.0"/>
  <line x1="380.0" y1="460.0" x2="400.0" y2="460.0"/>
  <line x1="380.0" y1="480.0" x2="400.0" y2="480.0"/>
  <line x1="380.0" y1="500.0" x2="400.0" y2="500.0"/>
  <line x1="400.0" y1="20.0" x2="420.0" y2="20.0"/>
  <line x1="400.0" y1="40.0" x2="420.0" y2="40.0"/>
  <line x1="420.0" y1="20.0" x2="420.0" y2="40.0"/>
  <line x1="420.0" y1="40.0" x2="420.0" y2="60.0"/>
  <line x1="420.0" y1="60.0" x2="420.0" y2="80.0"/>
  <line x1="400.0" y1="100.0" x2="420.0" y2="100.0"/>
  <line x1="420.0" y1="80.0" x2="420.0" y2="100.0"/>
  <line x1="420.0" y1="100.0" x2="420.0" y2="120.0"/>
  <line x1="420.0" y1="120.0" x2="420.0" y2="140.0"/>
  <line x1="420.0" y1="140.0" x2="420.0" y2="160.0"/>
  <line x1="400.0" y1="180.0" x2="420.0" y2="180.0"/>
  <line x1="420.0" y1="180.0" x2="420.0" y2="200.0"/>
  <line x1="420.0" y1="200.0" x2="420.0" y2="220.0"/>
  <line x1="420.0" y1="260.0" x2="420.0" y2="280.0"/>
  <line x1="400.0" y1="300.0" x2="420.0" y2="300.0"/>
  <line x1="420.0" y1="280.0" x2="420.0" y2="300.0"/>
  <line x1="420.0" y1="320.0" x2="420.0" y2="340.0"/>
  <line x1="400.0" y1="360.0" x2="420.0" y2="360.0"/>
  <line x1="420.0" y1="360.0" x2="420.0" y2="380.0"/>
  <line x1="400.0" y1="420.0" x2="420.0" y2="420.0"/>
  <line x1="400.0" y1="440.0" x2="420.0" y2="440.0"/>
  <line x1="420.0" y1="440.0" x2="420.0" y2="460.0"/>
  <line x1="400.0" y1="480.0" x2="420.0" y2="480.0"/>
  <line x1="420.0" y1="460.0" x2="420.0" y2="480.0"/>
  <line x1="400.0" y1="500.0" x2="420.0" y2="500.0"/>
  <line x1="440.0" y1="0.0" x2="440.0" y2="20.0"/>
  <line x1="440.0" y1="40.0" x2="440.0" y2="60.0"/>
  <line x1="440.0" y1="60.0" x2="440.0" y2="80.0"/>
  <line x1="440.0" y1="80.0" x2="440.0" y2="100.0"/>
  <line x1="440.0" y1="120.0" x2="440.0" y2="140.0"/>
  <line x1="420.0" y1="160.0" x2="440.0" y2="160.0"/>
  <line x1="440.0" y1="140.0" x2="440.0" y2="160.0"/>
  <line x1="420.0" y1="180.0" x2="440.0" y2="180.0"/>
  <line x1="420.0" y1="220.0" x2="440.0" y2="220.0"/>
  <line x1="420.0" y1="240.0" x2="440.0" y2="240.0"/>
  <line x1="440.0" y1="220.0" x2="440.0" y2="240.0"/>
  <line x1="440.0" y1="240.0" x2="440.0" y2="260.0"/>
  <line x1="440.0" y1="260.0" x2="440.0" y2="280.0"/>
  <line x1="420.0" y1="300.0" x2="440.0" y2="300.0"/>
  <line x1="440.0" y1="300.0" x2="440.0" y2="320.0"/>
  <line x1="420.0" y1="340.0" x2="440.0" y2="340.0"/>
  <line x1="440.0" y1="340.0" x2="440.0" y2="360.0"/>
  <line x1="440.0" y1="360.0" x2="440.0" y2="380.0"/>
  <line x1="420.0" y1="400.0" x2="440.0" y2="400.0"/>
  <line x1="420.0" y1="420.0" x2="440.0" y2="420.0"/>
  <line x1="440.0" y1="400.0" x2="440.0" y2="420.0"/>
  <line x1="440.0" y1="420.0" x2="440.0" y2="440.0"/>
  <line x1="440.0" y1="440.0" x2="440.0" y2="460.0"/>
  <line x1="440.0" y1="460.0" x2="440.0" y2="480.0"/>
  <line x1="420.0" y1="500.0" x2="440.0" y2="500.0"/>
  <line x1="440.0" y1="40.0" x2="460.0" y2="40.0"/>
  <line x1="460.0" y1="20.0" x2="460.0" y2="40.0"/>
  <line x1="460.0" y1="40.0" x2="460.0" y2="60.0"/>
  <line x1="460.0" y1="80.0" x2="460.0" y2="100.0"/>
  <line x1="440.0" y1="120.0" x2="460.0" y2="120.0"/>
  <line x1="460.0" y1="100.0" x2="460.0" y2="120.0"/>
  <line x1="440.0" y1="160.0" x2="460.0" y2="160.0"/>
  <line x1="460.0" y1="160.0" x2="460.0" y2="180.0"/>
  <line x1="440.0" y1="200.0" x2="460.0" y2="200.0"/>
  <line x1="460.0" y1="180.0" x2="460.0" y2="200.0"/>
  <line x1="460.0" y1="200.0" x2="460.0" y2="220.0"/>
  <line x1="440.0" y1="240.0" x2="460.0" y2="240.0"/>
  <line x1="440.0" y1="280.0" x2="460.0" y2="280.0"/>
  <line x1="460.0" y1="280.0" x2="460.0" y2="300.0"/>
  <line x1="440.0" y1="320.0" x2="460.0" y2="320.0"/>
  <line x1="460.0" y1="320.0" x2="460.0" y2="340.0"/>
  <line x1="460.0" y1="340.0" x2="460.0" y2="360.0"/>
  <line x1="440.0" y1="380.0" x2="460.0" y2="380.0"/>
  <line x1="440.0" y1="400.0" x2="460.0" y2="400.0"/>
  <line x1="460.0" y1="380.0" x2="460.0" y2="400.0"/>
  <line x1="460.0" y1="420.0" x2="460.0" y2="440.0"/>
  <line x1="440.0" y1="460.0" x2="460.0" y2="460.0"/>
  <line x1="440.0" y1="500.0" x2="460.0" y2="500.0"/>
  <line x1="460.0" y1="480.0" x2="460.0" y2="500.0"/>
  <line x1="460.0" y1="20.0" x2="480.0" y2="20.0"/>
  <line x1="460.0" y1="60.0" x2="480.0" y2="60.0"/>
  <line x1="460.0" y1="80.0" x2="480.0" y2="80.0"/>
  <line x1="480.0" y1="60.0" x2="480.0" y2="80.0"/>
  <line x1="460.0" y1="120.0" x2="480.0" y2="120.0"/>
  <line x1="460.0" y1="140.0" x2="480.0" y2="140.0"/>
  <line x1="480.0" y1="140.0" x2="480.0" y2="160.0"/>
  <line x1="480.0" y1="160.0" x2="480.0" y2="180.0"/>
  <line x1="480.0" y1="180.0" x2="480.0" y2="200.0"/>
  <line x1="480.0" y1="200.0" x2="480.0" y2="220.0"/>
  <line x1="460.0" y1="240.0" x2="480.0" y2="240.0"/>
  <line x1="480.0" y1="220.0" x2="480.0" y2="240.0"/>
  <line x1="460.0" y1="260.0" x2="480.0" y2="260.0"/>
  <line x1="480.0" y1="260.0" x2="480.0" y2="280.0"/>
  <line x1="460.0" y1="300.0" x2="480.0" y2="300.0"/>
  <line x1="480.0" y1="300.0" x2="480.0" y2="320.0"/>
  <line x1="460.0" y1="340.0" x2="480.0" y2="340.0"/>
  <line x1="460.0" y1="380.0" x2="480.0" y2="380.0"/>
  <line x1="480.0" y1="360.0" x2="480.0" y2="380.0"/>
  <line x1="460.0" y1="420.0" x2="480.0" y2="420.0"/>
  <line x1="480.0" y1="400.0" x2="480.0" y2="420.0"/>
  <line x1="460.0" y1="440.0" x2="480.0" y2="440.0"/>
  <line x1="480.0" y1="440.0" x2="480.0" y2="460.0"/>
  <line x1="460.0" y1="480.0" x2="480.0" y2="480.0"/>
  <line x1="480.0" y1="460.0" x2="480.0" y2="480.0"/>
  <line x1="460.0" y1="500.0" x2="480.0" y2="500.0"/>
  <line x1="500.0" y1="0.0" x2="500.0" y2="20.0"/>
  <line x1="480.0" y1="40.0" x2="500.0" y2="40.0"/>
  <line x1="500.0" y1="20.0" x2="500.0" y2="40.0"/>
  <line x1="500.0" y1="40.0" x2="500.0" y2="60.0"/>
  <line x1="500.0" y1="60.0" x2="500.0" y2="80.0"/>
  <line x1="480.0" y1="100.0" x2="500.0" y2="100.0"/>
  <line x1="500.0" y1="80.0" x2="500.0" y2="100.0"/>
  <line x1="500.0" y1="100.0" x2="500.0" y2="120.0"/>
  <line x1="500.0" y1="120.0" x2="500.0" y2="140.0"/>
  <line x1="500.0" y1="140.0" x2="500.0" y2="160.0"/>
  <line x1="500.0" y1="160.0" x2="500.0" y2="180.0"/>
  <line x1="500.0" y1="180.0" x2="500.0" y2="200.0"/>
  <line x1="500.0" y1="200.0" x2="500.0" y2="220.0"/>
  <line x1="500.0" y1="220.0" x2="500.0" y2="240.0"/>
  <line x1="480.0" y1="260.0" x2="500.0" y2="260.0"/>
  <line x1="500.0" y1="240.0" x2="500.0" y2="260.0"/>
  <line x1="500.0" y1="260.0" x2="500.0" y2="280.0"/>
  <line x1="500.0" y1="280.0" x2="500.0" y2="300.0"/>
  <line x1="500.0" y1="300.0" x2="500.0" y2="320.0"/>
  <line x1="480.0" y1="340.0" x2="500.0" y2="340.0"/>
  <line x1="500.0" y1="320.0" x2="500.0" y2="340.0"/>
  <line x1="500.0" y1="340.0" x2="500.0" y2="360.0"/>
  <line x1="500.0" y1="360.0" x2="500.0" y2="380.0"/>
  <line x1="500.0" y1="380.0" x2="500.0" y2="400.0"/>
  <line x1="500.0" y1="400.0" x2="500.0" y2="420.0"/>
  <line x1="500.0" y1="420.0" x2="500.0" y2="440.0"/>
  <line x1="500.0" y1="440.0" x2="500.0" y2="460.0"/>
  <line x1="500.0" y1="460.0" x2="500.0" y2="480.0"/>
  <line x1="500.0" y1="480.0" x2="500.0" y2="500.0"/>


  <!-- ############# Solved Maze lines ############### -->
  <polyline points="10.0, 0.0 10.0, 10.0 20.0, 10.0 30.0, 10.0 30.0, 20.0 30.0, 30.0 20.0, 30.0 10.0, 30.0 10.0, 40.0 10.0, 50.0 20.0, 50.0 30.0, 50.0 30.0, 60.0 30.0, 70.0 30.0, 80.0 30.0, 90.0 30.0, 100.0 30.0, 110.0 30.0, 120.0 30.0, 130.0 20.0, 130.0 10.0, 130.0 10.0, 140.0 10.0, 150.0 10.0, 160.0 10.0, 170.0 10.0, 180.0 10.0, 190.0 10.0, 200.0 10.0, 210.0 20.0, 210.0 30.0, 210.0 30.0, 200.0 30.0, 190.0 30.0, 180.0 30.0, 170.0 30.0, 160.0 30.0, 150.0 40.0, 150.0 50.0, 150.0 50.0, 140.0 50.0, 130.0 50.0, 120.0 50.0, 110.0 50.0, 100.0 50.0, 90.0 60.0, 90.0 70.0, 90.0 70.0, 80.0 70.0, 70.0 80.0, 70.0 90.0, 70.0 100.0, 70.0 110.0, 70.0 110.0, 60.0 110.0, 50.0 120.0, 50.0 130.0, 50.0 130.0, 40.0 130.0, 30.0 120.0, 30.0 110.0, 30.0 110.0, 20.0 110.0, 10.0 120.0, 10.0 130.0, 10.0 140.0, 10.0 150.0, 10.0 160.0, 10.0 170.0, 10.0 170.0, 20.0 170.0, 30.0 170.0, 40.0 170.0, 50.0 160.0, 50.0 150.0, 50.0 150.0, 60.0 150.0, 70.0 160.0, 70.0 170.0, 70.0 170.0, 80.0 170.0, 90.0 160.0, 90.0 150.0, 90.0 150.0, 100.0 150.0, 110.0 150.0, 120.0 150.0, 130.0 140.0, 130.0 130.0, 130.0 130.0, 140.0 130.0, 150.0 120.0, 150.0 110.0, 150.0 100.0, 150.0 90.0, 150.0 90.0, 160.0 90.0, 170.0 90.0, 180.0 90.0, 190.0 100.0, 190.0 110.0, 190.0 110.0, 180.0 110.0, 170.0 120.0, 170.0 130.0, 170.0 130.0, 180.0 130.0, 190.0 130.0, 200.0 130.0, 210.0 130.0, 220.0 130.0, 230.0 130.0, 240.0 130.0, 250.0 140.0, 250.0 150.0, 250.0 150.0, 240.0 150.0, 230.0 150.0, 220.0 150.0, 210.0 160.0, 210.0 170.0, 210.0 170.0, 200.0 170.0, 190.0 180.0, 190.0 190.0, 190.0 200.0, 190.0 210.0, 190.0 220.0, 190.0 230.0, 190.0 230.0, 180.0 230.0, 170.0 240.0, 170.0 250.0, 170.0 260.0, 170.0 270.0, 170.0 270.0, 160.0 270.0, 150.0 270.0, 140.0 270.0, 130.0 280.0, 130.0 290.0, 130.0 290.0, 140.0 290.0, 150.0 290.0, 160.0 290.0, 170.0 290.0, 180.0 290.0, 190.0 300.0, 190.0 310.0, 190.0 310.0, 200.0 310.0, 210.0 300.0, 210.0 290.0, 210.0 290.0, 220.0 290.0, 230.0 290.0, 240.0 290.0, 250.0 280.0, 250.0 270.0, 250.0 270.0, 240.0 270.0, 230.0 270.0, 220.0 270.0, 210.0 270.0, 200.0 270.0, 190.0 260.0, 190.0 250.0, 190.0 250.0, 200.0 250.0, 210.0 240.0, 210.0 230.0, 210.0 220.0, 210.0 210.0, 210.0 200.0, 210.0 190.0, 210.0 190.0, 220.0 190.0, 230.0 200.0, 230.0 210.0, 230.0 210.0, 240.0 210.0, 250.0 220.0, 250.0 230.0, 250.0 230.0, 260.0 230.0, 270.0 230.0, 280.0 230.0, 290.0 220.0, 290.0 210.0, 290.0 210.0, 300.0 210.0, 310.0 210.0, 320.0 210.0, 330.0 210.0, 340.0 210.0, 350.0 220.0, 350.0 230.0, 350.0 240.0, 350.0 250.0, 350.0 250.0, 360.0 250.0, 370.0 260.0, 370.0 270.0, 370.0 270.0, 380.0 270.0, 390.0 280.0, 390.0 290.0, 390.0 290.0, 400.0 290.0, 410.0 300.0, 410.0 310.0, 410.0 310.0, 400.0 310.0, 390.0 310.0, 380.0 310.0, 370.0 310.0, 360.0 310.0, 350.0 300.0, 350.0 290.0, 350.0 280.0, 350.0 270.0, 350.0 270.0, 340.0 270.0, 330.0 270.0, 320.0 270.0, 310.0 280.0, 310.0 290.0, 310.0 300.0, 310.0 310.0, 310.0 320.0, 310.0 330.0, 310.0 330.0, 320.0 330.0, 330.0 330.0, 340.0 330.0, 350.0 340.0, 350.0 350.0, 350.0 350.0, 360.0 350.0, 370.0 340.0, 370.0 330.0, 370.0 330.0, 380.0 330.0, 390.0 330.0, 400.0 330.0, 410.0 330.0, 420.0 330.0, 430.0 330.0, 440.0 330.0, 450.0 340.0, 450.0 350.0, 450.0 350.0, 460.0 350.0, 470.0 360.0, 470.0 370.0, 470.0 380.0, 470.0 390.0, 470.0 400.0, 470.0 410.0, 470.0 410.0, 460.0 410.0, 450.0 400.0, 450.0 390.0, 450.0 380.0, 450.0 370.0, 450.0 370.0, 440.0 370.0, 430.0 360.0, 430.0 350.0, 430.0 350.0, 420.0 350.0, 410.0 360.0, 410.0 370.0, 410.0 380.0, 410.0 390.0, 410.0 390.0, 420.0 390.0, 430.0 400.0, 430.0 410.0, 430.0 420.0, 430.0 430.0, 430.0 430.0, 440.0 430.0, 450.0 430.0, 460.0 430.0, 470.0 430.0, 480.0 430.0, 490.0 440.0, 490.0 450.0, 490.0 450.0, 480.0 450.0, 470.0 460.0, 470.0 470.0, 470.0 470.0, 460.0 470.0, 450.0 460.0, 450.0 450.0, 450.0 450.0, 440.0 450.0, 430.0 450.0, 420.0 450.0, 410.0 460.0, 410.0 470.0, 410.0 470.0, 400.0 470.0, 390.0 480.0, 390.0 490.0, 390.0 490.0, 400.0 490.0, 410.0 490.0, 420.0 490.0, 430.0 490.0, 440.0 490.0, 450.0 490.0, 460.0 490.0, 470.0 490.0, 480.0 490.0, 490.0 490.0, 500.0 " stroke="red" fill="none" stroke-width="2"/>

  <line x1="20.0" y1="0" x2="500" y2="0"/>
  <line x1="0" y1="0" x2="0" y2="500"/>
</svg>
